<svg xmlns="http://www.w3.org/2000/svg" xmlns:xlink="http://www.w3.org/1999/xlink" width="1080" zoomAndPan="magnify" viewBox="0 0 810 809.999993" height="1080" preserveAspectRatio="xMidYMid meet"><defs><clipPath id="1dbc20d171"><path d="M 188 9.859375 L 539 9.859375 L 539 800.359375 L 188 800.359375 Z M 188 9.859375 " clip-rule="nonzero"></path></clipPath></defs><path fill="#4c4a46" d="M 588.179688 268.480469 C 588.179688 268.144531 588.15625 267.804688 588.15625 267.464844 C 588.15625 267.125 588.179688 266.789062 588.179688 266.449219 L 588.105469 266.449219 C 586.53125 215.378906 559.703125 182.007812 517.738281 179.199219 L 468.992188 179.199219 L 468.992188 179.878906 C 454.507812 180.070312 442.835938 191.863281 442.835938 206.371094 C 442.835938 220.875 454.507812 232.667969 468.992188 232.859375 L 468.992188 233.34375 L 473.832031 233.34375 C 530.714844 233.078125 527.761719 233.078125 535.703125 233.585938 C 549.09375 234.460938 571.90625 239.421875 574.132812 262.914062 C 574.28125 264.460938 574.351562 265.964844 574.375 267.441406 C 574.351562 268.894531 574.28125 270.394531 574.132812 271.96875 C 571.90625 295.457031 549.09375 300.421875 535.703125 301.292969 C 533.621094 301.441406 527.761719 301.535156 519.285156 301.609375 C 518.777344 301.5625 518.269531 301.511719 517.738281 301.464844 L 397.214844 301.464844 L 397.214844 301.875 C 382.734375 302.070312 371.0625 313.863281 371.0625 328.367188 C 371.0625 342.871094 382.734375 354.664062 397.214844 354.859375 L 397.214844 355.683594 L 517.566406 355.683594 C 517.566406 355.683594 517.738281 355.683594 517.738281 355.683594 C 518.246094 355.660156 518.753906 355.585938 519.285156 355.539062 C 527.761719 355.609375 533.597656 355.707031 535.703125 355.851562 C 549.09375 356.722656 571.90625 361.6875 574.132812 385.175781 C 574.28125 386.726562 574.351562 388.230469 574.375 389.707031 C 574.351562 391.160156 574.28125 392.660156 574.132812 394.234375 C 571.90625 417.722656 549.09375 422.6875 535.703125 423.558594 C 527.6875 424.09375 385.347656 424.09375 328.515625 423.824219 L 323.671875 423.824219 C 323.671875 423.824219 323.671875 424.503906 323.671875 424.503906 C 309.191406 424.699219 297.519531 436.492188 297.519531 450.996094 C 297.519531 465.5 309.191406 477.292969 323.671875 477.488281 L 323.671875 477.949219 L 517.566406 477.949219 C 517.566406 477.949219 517.738281 477.949219 517.738281 477.949219 C 559.726562 475.136719 586.53125 441.769531 588.105469 390.699219 L 588.179688 390.699219 C 588.179688 390.359375 588.15625 390.019531 588.15625 389.679688 C 588.15625 389.34375 588.179688 389.003906 588.179688 388.664062 L 588.105469 388.664062 C 587.355469 364.011719 580.695312 343.503906 569.316406 328.535156 C 580.722656 313.570312 587.355469 293.0625 588.105469 268.410156 L 588.179688 268.410156 Z M 588.179688 268.480469 " fill-opacity="1" fill-rule="nonzero"></path><g clip-path="url(#1dbc20d171)"><path fill="#a7a19b" d="M 538.585938 583.816406 L 538.390625 583.9375 C 538.390625 573.527344 538.296875 563.332031 538.199219 552.773438 C 538.027344 534.878906 537.859375 517.152344 537.714844 500.953125 L 463.542969 500.953125 L 463.542969 503.472656 C 463.542969 574.566406 418.355469 632.199219 362.585938 632.199219 C 306.816406 632.199219 264.199219 577.765625 261.753906 509.429688 L 261.316406 478.382812 L 261.316406 372.078125 L 261.632812 372.078125 C 261.632812 372.078125 261.632812 154.71875 261.632812 154.71875 C 261.632812 83.621094 306.816406 25.988281 362.585938 25.988281 C 418.355469 25.988281 460.976562 80.421875 463.421875 148.761719 L 463.542969 157.234375 L 534.855469 157.234375 C 521.878906 73.738281 449.691406 9.859375 362.585938 9.859375 C 266.28125 9.859375 188.210938 87.929688 188.210938 184.234375 L 188.210938 473.953125 C 188.210938 570.257812 266.28125 648.328125 362.585938 648.328125 C 401.1875 648.328125 436.855469 635.761719 465.746094 614.523438 C 465.816406 616.023438 465.867188 620.988281 465.9375 625.929688 L 465.84375 626 L 465.722656 658.523438 C 463.785156 712.71875 436.082031 759.890625 397.867188 778.171875 C 401.089844 772.265625 402.929688 765.460938 402.929688 758.269531 C 402.929688 735.238281 384.261719 716.570312 361.230469 716.570312 C 338.203125 716.570312 319.53125 735.238281 319.53125 758.269531 C 319.53125 781.296875 338.203125 799.96875 361.230469 799.96875 C 361.789062 799.96875 362.320312 799.894531 362.878906 799.894531 L 362.878906 800.183594 C 449.398438 801.542969 536.550781 727.394531 538.027344 642.664062 C 538.367188 622.492188 538.296875 611.496094 538.269531 602.996094 C 538.34375 598.371094 538.367188 593.820312 538.390625 589.363281 C 538.441406 587.621094 538.511719 585.828125 538.609375 583.867188 Z M 538.585938 583.816406 " fill-opacity="1" fill-rule="nonzero"></path></g></svg>